<?xml version="1.0" standalone="no"?>
<!DOCTYPE svg PUBLIC "-//W3C//DTD SVG 20010904//EN"
 "http://www.w3.org/TR/2001/REC-SVG-20010904/DTD/svg10.dtd">
<svg version="1.0" xmlns="http://www.w3.org/2000/svg"
 width="1008.000000pt" height="1008.000000pt" viewBox="0 0 1008.000000 1008.000000"
 preserveAspectRatio="xMidYMid meet">
<metadata>
Created by potrace 1.14, written by Peter Selinger 2001-2017
</metadata>
<g transform="translate(0.000000,1008.000000) scale(0.100000,-0.100000)"
fill="#000000" stroke="none">
<path d="M6169 9094 c-1 -5 -2 -1773 -3 -3929 l-1 -3920 1507 0 c1011 0 1508
3 1509 10 4 63 -1 5371 -6 5540 -8 267 -13 420 -15 420 -1 0 -3 34 -5 75 -2
41 -6 104 -9 140 -3 36 -8 99 -11 140 -4 41 -8 82 -10 90 -3 8 -7 40 -10 70
-3 30 -12 93 -20 139 -8 46 -12 88 -9 92 3 5 1 9 -3 9 -5 0 -10 10 -11 23 -1
12 -4 29 -6 37 -8 36 -18 76 -23 90 -3 8 -7 22 -9 30 -15 84 -57 199 -116 318
-28 56 -55 102 -59 102 -5 0 -9 7 -9 15 0 8 -4 15 -10 15 -5 0 -10 6 -10 13 0
19 -137 158 -200 203 -86 61 -80 57 -205 115 -27 13 -52 24 -55 24 -3 1 -12 4
-20 8 -77 30 -229 67 -345 83 -16 3 -43 7 -60 9 -16 3 -59 8 -95 11 -83 8
-105 11 -105 13 0 13 -1574 27 -1576 15z"/>
<path d="M4630 8964 c0 -5 -21 -10 -47 -10 -87 -2 -377 -16 -555 -27 -16 -1
-28 -5 -28 -9 0 -4 -6 -5 -13 -2 -12 4 -67 -6 -317 -61 -8 -2 -17 -4 -20 -5
-3 -1 -8 -2 -12 -1 -5 0 -8 -4 -8 -10 0 -5 -4 -8 -9 -5 -7 5 -165 -41 -211
-61 -8 -3 -17 -7 -20 -7 -5 -1 -46 -17 -115 -45 -43 -17 -274 -133 -340 -171
-129 -73 -180 -104 -183 -112 -2 -4 -8 -8 -14 -8 -5 0 -20 -8 -33 -17 -12 -10
-33 -25 -45 -33 -161 -106 -368 -315 -445 -447 -11 -18 -24 -33 -29 -33 -5 0
-7 -3 -3 -6 3 -3 -4 -23 -17 -43 -57 -90 -129 -270 -171 -421 -15 -52 -29
-102 -32 -110 -3 -8 -7 -24 -8 -35 -1 -11 -10 -54 -19 -95 -9 -41 -19 -91 -22
-110 -2 -19 -7 -44 -9 -56 -3 -12 -7 -39 -10 -60 -4 -21 -8 -50 -11 -64 -3
-14 -7 -47 -9 -75 -2 -27 -7 -66 -10 -85 -4 -19 -8 -48 -10 -65 -14 -138 -18
-174 -22 -200 -2 -16 -6 -140 -9 -275 -10 -491 -16 -649 -30 -830 -3 -41 -6
-96 -7 -122 -1 -27 -4 -48 -7 -48 -3 0 -5 -12 -6 -27 -1 -38 -13 -112 -36
-223 -6 -30 -12 -62 -13 -70 0 -9 -5 -22 -10 -30 -5 -8 -10 -19 -10 -25 -1
-34 -56 -162 -98 -230 -34 -55 -151 -178 -161 -168 -3 3 -8 -2 -12 -11 -3 -9
-15 -16 -25 -16 -10 0 -19 -4 -19 -9 0 -7 -111 -58 -145 -66 -38 -8 -72 -17
-85 -22 -8 -3 -25 -7 -38 -9 -12 -1 -46 -7 -75 -13 -66 -13 -199 -30 -287 -36
-25 -2 -48 -4 -51 -4 -7 -1 -9 -2969 -2 -2987 2 -6 31 -9 71 -8 37 2 194 5
349 8 155 2 286 7 291 9 4 3 26 8 48 11 21 3 50 8 64 10 29 7 114 23 150 30
54 11 258 66 315 86 33 12 67 23 76 25 8 2 43 15 77 29 34 14 68 26 77 26 8 0
15 4 15 8 0 5 6 9 13 9 16 0 191 85 195 95 2 4 12 8 23 8 10 0 19 4 19 9 0 5
10 13 23 17 12 4 41 20 64 35 23 16 44 29 48 29 3 0 11 5 18 10 7 6 51 39 98
73 47 35 94 70 104 78 45 36 256 249 291 294 21 27 44 55 49 62 23 28 33 42
84 118 54 80 76 117 113 188 11 20 24 40 29 43 5 3 9 14 9 25 0 10 5 19 10 19
6 0 10 4 10 9 0 5 17 47 39 93 21 45 50 112 64 148 14 36 31 79 38 95 7 17 13
35 14 40 2 6 16 53 33 105 17 52 40 127 51 165 20 67 25 87 37 145 3 14 10 43
15 65 5 22 12 49 14 60 13 52 52 267 61 335 3 25 8 53 10 64 6 31 17 130 18
154 0 12 2 22 6 22 3 0 5 17 6 38 0 20 3 64 7 97 4 33 9 92 12 130 3 39 8 97
10 130 11 140 19 331 19 482 1 90 3 163 6 163 3 0 5 53 6 118 0 132 6 181 29
267 36 130 137 262 241 315 27 14 52 30 56 35 4 6 8 7 8 3 0 -4 17 0 38 9 41
17 83 26 125 27 15 1 27 4 27 8 0 4 61 7 135 5 74 -1 135 0 136 3 0 3 1 683 2
1513 2 1451 1 1507 -16 1513 -10 3 -21 3 -24 0 -4 -3 -12 -1 -20 5 -7 6 -13 7
-13 3z"/>
<path d="M5746 5948 c-8 -13 -45 -75 -82 -138 -36 -63 -75 -128 -85 -145 -10
-16 -24 -41 -32 -55 -8 -14 -51 -88 -97 -165 -45 -77 -90 -153 -99 -170 -9
-16 -19 -31 -23 -33 -5 -2 -8 -9 -8 -17 0 -7 -7 -18 -15 -25 -8 -7 -13 -16
-10 -20 3 -5 2 -10 -3 -12 -4 -1 -35 -52 -69 -113 -95 -173 -123 -228 -123
-242 0 -7 -4 -13 -10 -13 -5 0 -10 -6 -10 -13 0 -7 -9 -32 -20 -54 -18 -37
-64 -168 -77 -218 -39 -153 -56 -271 -70 -475 -8 -119 -8 -744 0 -1030 3 -118
8 -309 11 -425 5 -198 9 -338 21 -725 3 -91 8 -262 11 -380 7 -284 6 -270 16
-270 4 0 8 7 8 15 0 8 4 15 10 15 5 0 9 4 7 8 -1 6 173 359 213 432 5 8 45 88
90 177 44 90 100 201 125 248 24 47 44 87 43 88 0 1 22 47 49 102 70 144 140
311 184 442 20 62 36 113 34 113 -3 0 0 11 5 25 5 14 12 36 14 48 3 12 7 32
10 43 2 12 7 37 10 55 3 19 7 43 10 54 49 254 53 821 11 1945 -8 217 -17 595
-19 737 0 79 -4 143 -7 143 -3 0 -4 16 -3 35 4 41 0 43 -20 13z"/>
</g>
</svg>
